<svg id="_08eab577-e723-4d12-b868-9f4caa103b0f" data-name="08eab577-e723-4d12-b868-9f4caa103b0f" xmlns="http://www.w3.org/2000/svg" xmlns:xlink="http://www.w3.org/1999/xlink" viewBox="0 0 312.38 210.64"><defs><style>.cls-1{fill:#3f3d56;}.cls-2{fill:#7a4190;}.cls-3{fill:url(#Degradado_sin_nombre);}.cls-4{fill:#e7effd;}.cls-5{opacity:0.3;}.cls-5,.cls-6,.cls-9{isolation:isolate;}.cls-6{opacity:0.4;}.cls-7{fill:url(#Degradado_sin_nombre_2);}.cls-8{fill:#65617d;}.cls-9{opacity:0.1;}.cls-10{fill:#fbbebe;}.cls-11{opacity:0.2;}.cls-12{fill:#d4dfec;}</style><linearGradient id="Degradado_sin_nombre" x1="208.11" y1="188.51" x2="208.11" y2="362.56" gradientTransform="matrix(1, 0, 0, -1, -45.11, 372.89)" gradientUnits="userSpaceOnUse"><stop offset="0.2" stop-color="gray" stop-opacity="0.4"/><stop offset="0.46" stop-color="gray" stop-opacity="0.5"/><stop offset="1" stop-opacity="0.6"/></linearGradient><linearGradient id="Degradado_sin_nombre_2" x1="207.36" y1="163.29" x2="207.36" y2="321.07" gradientTransform="matrix(1, 0, 0, -1, -45.11, 372.89)" gradientUnits="userSpaceOnUse"><stop offset="0" stop-color="gray" stop-opacity="0.25"/><stop offset="0.54" stop-color="gray" stop-opacity="0.12"/><stop offset="1" stop-color="gray" stop-opacity="0.1"/></linearGradient></defs><path class="cls-1" d="M318.34,162.49c0,12.49-68.75,58.48-154.6,58.48S10.29,172,10.29,159.47s67.59,16.27,153.45,16.27S318.34,150,318.34,162.49Z" transform="translate(-6.81 -10.33)"/><path class="cls-2" d="M319.19,157.51v.5c-.19,5.19-3.08,10.35-8.35,14-5.6,3.87-13.1,5.9-20.81,7.2-1.2.2-2.41.38-3.62.56l-1.84.25c-17.15,2.25-34.66,2.68-52.09,3.09-18.23.45-36.48.9-54.73,1.13l-3.62,0c-27.69.3-55.37,0-83-1.52-8.56-.49-17.21-1.13-25.7-2.21-1.21-.15-2.41-.31-3.62-.49C50.6,178.44,39.67,176,29.72,172a72.76,72.76,0,0,1-6.89-3.18c-6.25-3.32-11.52-7.52-14.13-12.67a17.75,17.75,0,0,1-1.8-9.77,22.3,22.3,0,0,1,.63-3.62,32.13,32.13,0,0,1,3.55-8.36c4.07-6.88,10.17-13,15.44-19.49C37.75,101.1,45.07,83.72,34.7,69.62c-3-4.05-7.28-7.6-9.7-11.83a19,19,0,0,1-2.37-7.44,24.31,24.31,0,0,1-.15-3.62,49.35,49.35,0,0,1,1.05-8.4c1.69-8.65,4.85-18,14.59-23.36,6.65-3.69,15.13-4.83,23.73-4.61,1.2,0,2.41.08,3.62.17,3.29.21,6.57.61,9.73,1.12,19.55,3.12,37.59,9.65,55.8,15.53,13.86,4.49,28.22,8.68,43.12,10.68,1.21.16,2.41.3,3.62.43q5.25.59,10.57.74c17.68.51,38.31-3.32,50.05-13.26,11.34-9.61,32.61-10.38,48-4.64l.23.08c1.16.45,2.29.92,3.38,1.43,11.38,5.35,19,14.51,20.07,24.1a21.42,21.42,0,0,1,.1,3.58v0C309.44,62.15,299.8,72.05,290,82q-1.81,1.83-3.62,3.68a131.41,131.41,0,0,0-8.92,9.93,45.43,45.43,0,0,0-3.35,4.81,29.91,29.91,0,0,0-2.39,4.85,20,20,0,0,0-1.31,5.43,14.12,14.12,0,0,0,1.41,7.77l0,0c2.61,5.18,8.14,8.85,14.54,12.11,1.18.6,2.39,1.18,3.62,1.76,6.94,3.28,14.42,6.32,20.11,10.37a29.92,29.92,0,0,1,4.27,3.6,20.92,20.92,0,0,1,1.51,1.74,15.22,15.22,0,0,1,3.29,9.2Z" transform="translate(-6.81 -10.33)"/><path class="cls-3" d="M319.19,157.51v.5c-.19,5.19-3.08,10.35-8.35,14-5.6,3.87-13.1,5.9-20.81,7.2-1.2.2-2.41.38-3.62.56l-1.84.25c-17.15,2.25-34.66,2.68-52.09,3.09-18.23.45-36.48.9-54.73,1.13l-3.62,0c-27.69.3-55.37,0-83-1.52-8.56-.49-17.21-1.13-25.7-2.21-1.21-.15-2.41-.31-3.62-.49C50.6,178.44,39.67,176,29.72,172a72.76,72.76,0,0,1-6.89-3.18c-6.25-3.32-11.52-7.52-14.13-12.67a17.75,17.75,0,0,1-1.8-9.77,22.3,22.3,0,0,1,.63-3.62,32.13,32.13,0,0,1,3.55-8.36c4.07-6.88,10.17-13,15.44-19.49C37.75,101.1,45.07,83.72,34.7,69.62c-3-4.05-7.28-7.6-9.7-11.83a19,19,0,0,1-2.37-7.44,24.31,24.31,0,0,1-.15-3.62,49.35,49.35,0,0,1,1.05-8.4c1.69-8.65,4.85-18,14.59-23.36,6.65-3.69,15.13-4.83,23.73-4.61,1.2,0,2.41.08,3.62.17,3.29.21,6.57.61,9.73,1.12,19.55,3.12,37.59,9.65,55.8,15.53,13.86,4.49,28.22,8.68,43.12,10.68,1.21.16,2.41.3,3.62.43q5.25.59,10.57.74c17.68.51,38.31-3.32,50.05-13.26,11.34-9.61,32.61-10.38,48-4.64l.23.08c1.16.45,2.29.92,3.38,1.43,11.38,5.35,19,14.51,20.07,24.1a21.42,21.42,0,0,1,.1,3.58v0C309.44,62.15,299.8,72.05,290,82q-1.81,1.83-3.62,3.68a131.41,131.41,0,0,0-8.92,9.93,45.43,45.43,0,0,0-3.35,4.81,29.91,29.91,0,0,0-2.39,4.85,20,20,0,0,0-1.31,5.43,14.12,14.12,0,0,0,1.41,7.77l0,0c2.61,5.18,8.14,8.85,14.54,12.11,1.18.6,2.39,1.18,3.62,1.76,6.94,3.28,14.42,6.32,20.11,10.37a29.92,29.92,0,0,1,4.27,3.6,20.92,20.92,0,0,1,1.51,1.74,15.22,15.22,0,0,1,3.29,9.2Z" transform="translate(-6.81 -10.33)"/><path class="cls-1" d="M290,22.64V82q-1.81,1.83-3.62,3.68V21.13Z" transform="translate(-6.81 -10.33)"/><path class="cls-1" d="M310.19,50.32v0H22.63a24.36,24.36,0,0,1-.15-3.62H310.09A20.41,20.41,0,0,1,310.19,50.32Z" transform="translate(-6.81 -10.33)"/><circle class="cls-4" cx="67.94" cy="20.21" r="1.06"/><circle class="cls-4" cx="34.13" cy="18.1" r="1.06"/><circle class="cls-4" cx="79.86" cy="20.21" r="0.45"/><circle class="cls-4" cx="45.9" cy="19.16" r="0.45"/><circle class="cls-4" cx="45.45" cy="50.81" r="0.45"/><circle class="cls-4" cx="254.46" cy="26.89" r="0.45"/><circle class="cls-4" cx="100.99" cy="27.31" r="0.45"/><circle class="cls-4" cx="232.13" cy="26.4" r="0.45"/><circle class="cls-4" cx="289.17" cy="27.76" r="0.45"/><path class="cls-2" d="M319.19,157.51v.5c-.14,5.23-3,10.44-8.35,14.11-5.6,3.86-13.1,5.9-20.81,7.19-1.2.21-2.41.39-3.62.57l-1.84.24c-4.22.57-8.47,1-12.73,1.36-5.71.48-11.45.82-17.2,1.06-7.38.33-14.77.51-22.16.69-14.44.36-28.88.71-43.35,1l-5.13.08-6.26.09-3.62,0c-22.8.24-45.56.12-68.29-.81l-4.53-.2q-5.05-.22-10.13-.51c-6.77-.39-13.59-.87-20.34-1.59-1.79-.19-3.57-.39-5.35-.62-1.21-.15-2.41-.31-3.62-.49s-2.67-.39-4-.61a131.6,131.6,0,0,1-28.13-7.49,75.61,75.61,0,0,1-6.9-3.19V119.35c1.25-1.45,2.49-2.9,3.69-4.37,1.43-1.76,2.81-3.57,4.08-5.44H57.85V92.75h48v36.91H184V100.39h90.19a30.72,30.72,0,0,0-2.36,4.69v.16h-.11a20,20,0,0,0-1.31,5.43,14.2,14.2,0,0,0,1.4,7.77v.12l0,0c2.61,5.18,8.14,8.85,14.54,12.1,1.18.61,2.39,1.19,3.62,1.77,6.87,3.25,14.28,6.26,19.94,10.25l.17.12a30.78,30.78,0,0,1,4.17,3.48l.11.12a19.21,19.21,0,0,1,1.51,1.74,15.28,15.28,0,0,1,3.29,9.08Z" transform="translate(-6.81 -10.33)"/><path class="cls-5" d="M319.19,157.51v.5c-.14,5.23-3,10.44-8.35,14.11-5.6,3.86-13.1,5.9-20.81,7.19-1.2.21-2.41.39-3.62.57l-1.84.24c-4.22.57-8.47,1-12.73,1.36-5.71.48-11.45.82-17.2,1.06-7.38.33-14.77.51-22.16.69-14.44.36-28.88.71-43.35,1l-5.13.08-6.26.09-3.62,0c-22.8.24-45.56.12-68.29-.81l-4.53-.2q-5.05-.22-10.13-.51c-6.77-.39-13.59-.87-20.34-1.59-1.79-.19-3.57-.39-5.35-.62-1.21-.15-2.41-.31-3.62-.49s-2.67-.39-4-.61a131.6,131.6,0,0,1-28.13-7.49,75.61,75.61,0,0,1-6.9-3.19V119.35c1.25-1.45,2.49-2.9,3.69-4.37,1.43-1.76,2.81-3.57,4.08-5.44H57.85V92.75h48v36.91H184V100.39h90.19a30.72,30.72,0,0,0-2.36,4.69v.16h-.11a20,20,0,0,0-1.31,5.43,14.2,14.2,0,0,0,1.4,7.77v.12l0,0c2.61,5.18,8.14,8.85,14.54,12.1,1.18.61,2.39,1.19,3.62,1.77,6.87,3.25,14.28,6.26,19.94,10.25l.17.12a30.78,30.78,0,0,1,4.17,3.48l.11.12a19.21,19.21,0,0,1,1.51,1.74,15.28,15.28,0,0,1,3.29,9.08Z" transform="translate(-6.81 -10.33)"/><rect class="cls-6" x="24.98" y="106.06" width="8.05" height="5.43"/><rect class="cls-6" x="37.86" y="106.06" width="8.05" height="5.43"/><rect class="cls-6" x="185.75" y="94.89" width="8.05" height="5.43"/><rect class="cls-6" x="207.48" y="94.89" width="8.05" height="5.43"/><rect class="cls-6" x="230.82" y="94.89" width="8.05" height="5.43"/><rect class="cls-6" x="185.75" y="111.49" width="8.05" height="5.43"/><rect class="cls-6" x="207.48" y="111.49" width="8.05" height="5.43"/><rect class="cls-2" x="230.82" y="111.49" width="8.05" height="5.43"/><rect class="cls-6" x="185.75" y="128.09" width="8.05" height="5.43"/><rect class="cls-6" x="207.48" y="128.09" width="8.05" height="5.43"/><rect class="cls-6" x="230.82" y="128.09" width="8.05" height="5.43"/><rect class="cls-6" x="185.75" y="144.69" width="8.05" height="5.43"/><rect class="cls-6" x="207.48" y="144.69" width="8.05" height="5.43"/><rect class="cls-6" x="230.82" y="144.69" width="8.05" height="5.43"/><rect class="cls-6" x="185.75" y="161.29" width="8.05" height="5.43"/><rect class="cls-6" x="207.48" y="161.29" width="8.05" height="5.43"/><rect class="cls-6" x="230.82" y="161.29" width="8.05" height="5.43"/><path class="cls-6" d="M271.73,105.24a20,20,0,0,0-1.31,5.43H266v-5.43Z" transform="translate(-6.81 -10.33)"/><rect class="cls-2" x="259.19" y="111.49" width="8.05" height="5.43"/><rect class="cls-6" x="259.19" y="128.09" width="8.05" height="5.43"/><rect class="cls-6" x="259.19" y="144.69" width="8.05" height="5.43"/><rect class="cls-6" x="259.19" y="161.29" width="8.05" height="5.43"/><rect class="cls-6" x="69.65" y="88.55" width="8.05" height="5.43"/><rect class="cls-2" x="69.65" y="100.73" width="8.05" height="5.43"/><rect class="cls-6" x="69.65" y="112.91" width="8.05" height="5.43"/><rect class="cls-6" x="69.65" y="125.09" width="8.05" height="5.43"/><rect class="cls-6" x="69.65" y="137.26" width="8.05" height="5.43"/><rect class="cls-6" x="69.65" y="149.44" width="8.05" height="5.43"/><rect class="cls-6" x="69.65" y="161.62" width="8.05" height="5.43"/><rect class="cls-6" x="24.98" y="120.25" width="8.05" height="5.43"/><rect class="cls-6" x="37.86" y="120.25" width="8.05" height="5.43"/><rect class="cls-6" x="24.98" y="134.45" width="8.05" height="5.43"/><rect class="cls-6" x="37.86" y="134.45" width="8.05" height="5.43"/><rect class="cls-6" x="24.98" y="148.65" width="8.05" height="5.43"/><rect class="cls-6" x="37.86" y="148.65" width="8.05" height="5.43"/><rect class="cls-6" x="115.12" y="125.66" width="40.24" height="4.86"/><rect class="cls-6" x="115.12" y="141.15" width="40.24" height="4.86"/><rect class="cls-6" x="115.12" y="156.65" width="40.24" height="4.86"/><path class="cls-1" d="M65.47,10.53v170c-1.21-.15-2.42-.32-3.62-.49V10.36C63.05,10.38,64.26,10.44,65.47,10.53Z" transform="translate(-6.81 -10.33)"/><path class="cls-1" d="M177.74,38.29V184.23l-3.62.05V37.85C175.33,38,176.54,38.16,177.74,38.29Z" transform="translate(-6.81 -10.33)"/><path class="cls-1" d="M314.39,146.33H6.9a22.3,22.3,0,0,1,.63-3.62h302.6A29.44,29.44,0,0,1,314.39,146.33Z" transform="translate(-6.81 -10.33)"/><path class="cls-1" d="M286.4,130.59c1.18.6,2.39,1.18,3.62,1.76V179.2c-1.2.2-2.41.38-3.62.56Z" transform="translate(-6.81 -10.33)"/><polygon class="cls-4" points="94.96 64.69 94.27 64.69 94.27 63.99 94.14 63.99 94.14 64.69 93.45 64.69 93.45 64.81 94.14 64.81 94.14 65.5 94.27 65.5 94.27 64.81 94.96 64.81 94.96 64.69"/><polygon class="cls-4" points="238.87 50.29 238.18 50.29 238.18 49.6 238.05 49.6 238.05 50.29 237.36 50.29 237.36 50.42 238.05 50.42 238.05 51.11 238.18 51.11 238.18 50.42 238.87 50.42 238.87 50.29"/><polygon class="cls-4" points="111.36 47.49 110.67 47.49 110.67 46.8 110.54 46.8 110.54 47.49 109.85 47.49 109.85 47.62 110.54 47.62 110.54 48.31 110.67 48.31 110.67 47.62 111.36 47.62 111.36 47.49"/><circle class="cls-4" cx="110.31" cy="91.75" r="0.45"/><circle class="cls-4" cx="213.65" cy="51.26" r="0.45"/><circle class="cls-4" cx="259.19" cy="72.72" r="0.45"/><circle class="cls-4" cx="187.87" cy="76.61" r="0.45"/><path class="cls-7" d="M208.16,163.22s-9.65,2.34-13.48,6.71a13,13,0,0,1-5.14,3.26V166.6c2.21-3.71,4.44-7.84,4.44-7.84.1-.2.9-3,.9-3,1.82-1.42-.1-6.4-.1-6.4s1.11-3.15.5-3.76-.1-2.23.41-3a3.68,3.68,0,0,0,.4-2.23c0-.61-.81-1.53-2.11-2s.1-1.32.9-1.53,1-2.13.1-3.15.11-1.62.61-2.74S194,130,194,130V119.73h0s-.61-3.35-1.21-9.24-2.92-6.51-2.92-6.51a26.13,26.13,0,0,1-3.62-1.42,24.68,24.68,0,0,0-3.82-1.42,19.67,19.67,0,0,1-4.93-.68,15.27,15.27,0,0,0-3.37-.73l-.36-.18a13.23,13.23,0,0,1-6.11-6.48c-.06-.14-.11-.28-.17-.41a14.61,14.61,0,0,0,1.61-2.14h0V91.7h0v0c1.6-2.84,6.26-3.49,6.7-6.72a3.4,3.4,0,0,0,0-.45v-.34c-.06-.91-.37-1.81-.43-2.72a5.21,5.21,0,0,1,0-.79v0c.21-2.51,2.1-4.7,3-7.14a8.39,8.39,0,0,0,.45-2v0c0-.21,0-.42.05-.63v-.6a9.51,9.51,0,0,0-3.14-6.86c-1.61-1.4-3.73-2.27-4.84-4.09-.52-.85-.77-1.85-1.34-2.67-1.06-1.54-3-2.17-4.86-2.39a28.2,28.2,0,0,1-5.52-.73c-1.25-.41-2.39-1.14-3.66-1.5A7,7,0,0,0,148,54.78a13.12,13.12,0,0,1-2,2.9c-1.84,1.56-5,.88-6.59,2.68a4.81,4.81,0,0,0-.88,3.7v0c0,.11,0,.21,0,.32v.15a.44.44,0,0,0,0,.16c.06.49.13,1,.19,1.46a1.52,1.52,0,0,0,0,.21l.05.44a1.84,1.84,0,0,0,0,.33c0,.1,0,.28,0,.4s0,.2,0,.31a21.76,21.76,0,0,1-2.3,10.84c-1.53,3-3.79,5.74-4.18,9.07a9.11,9.11,0,0,0-.05,1.65v.19c0,.07,0,.2,0,.3s0,.23,0,.34a1.25,1.25,0,0,0,0,.19c0,.15,0,.3.07.45V91c.4,2.27,1.31,4.5,1.79,6.8a18.69,18.69,0,0,1,.36,2.57v0c0,.28,0,.55,0,.82v1.13a19.16,19.16,0,0,1-2.34.72c-1.41.2-5.54,3.86-5.24,4.78s-1.85,7.32-1.91,7.51h0l-3.37,23.37s-1.8,1.72-1.24,2.84-.11,3-.11,3-3,1.32-2.35,2.13.36,2.34-.1,3.36-1.22,2.84,0,3.15.21,4.27.21,4.27,4.25-.49,3.94,2c-.1.8,3,3,4.25,3.89V175.6a37.33,37.33,0,0,1-5-1.7c-2.61-1.22-17.3-3.56-20.52,3.45s4.42,16.36,6.34,17.38a13,13,0,0,1,2.21,2.13c.4.71,2.72.92,2.72.92a17.43,17.43,0,0,1,3,1.72c.45.45,4.13,1.62,8.49,2.53h0s-3.52,8.11,2.22,7.44,8.54-3.49,12.59-3.49c1.62,0,4.63-.23,7.65-.5a19.5,19.5,0,0,1,2.26.53,29,29,0,0,0,5.23,1.13s4.53,2.43,6.94,1.82a1.51,1.51,0,0,0,.55-.28h0a3.18,3.18,0,0,0,1.46-1.24,42.43,42.43,0,0,1,7.75,1.24c2.51,1,20.41-.37,20.41-.37s11.56.23,14.87,1.23,2.14-10.23-4-11.49a25,25,0,0,0-4.95-.49,11.06,11.06,0,0,0,1.15-1.41l3.66-.32s5.84-2.85,9.16-4.58a20.66,20.66,0,0,0,5.63-4.47s2.92-1.83,4.12-2.53,1.81-3.05,1.81-3.05C231.4,160.47,208.16,163.22,208.16,163.22Zm-26.2-26v-1c.33.23.28.6,0,1Zm.1,7.18.65.85c.65.84-.53,1.24-.44,2.63,0,.32,0,.75.07,1.24h0c-.12-2-.22-3.68-.28-4.72Z" transform="translate(-6.81 -10.33)"/><path class="cls-8" d="M129.69,176.47a59.47,59.47,0,0,1-8.25-2.52c-2.62-1.21-17.31-3.52-20.53,3.42s4.43,16.2,6.34,17.21,20.53-12.78,20.53-12.78L142.46,188l2.81-9.61Z" transform="translate(-6.81 -10.33)"/><rect class="cls-8" x="129.09" y="168.05" width="63.91" height="22.23" rx="10.37"/><path class="cls-9" d="M199.81,189.49a11.13,11.13,0,0,1-11.12,11.13H147a11.12,11.12,0,1,1,0-22.24H188.7A11.1,11.1,0,0,1,199.81,189.49Z" transform="translate(-6.81 -10.33)"/><path class="cls-10" d="M165,190.14a53.2,53.2,0,0,1-11.64,1.58c-5.23-.08-29.7,10.09-29.7,10.09s-3.52,8,2.23,7.36,8.54-3.45,12.59-3.45,16.79-1.41,16.79-1.41l12.26-9.05Z" transform="translate(-6.81 -10.33)"/><path class="cls-10" d="M169,114.39l-11.5,2.27-.74.15s-9.09-2.42-9.39-2.62-8.56-11.32-8.56-11.32a16.58,16.58,0,0,0,7.45-1.84l.35-.21a7.26,7.26,0,0,0,3.1-3.8c.06-.17.11-.34.16-.52a10.3,10.3,0,0,0-.1-5c-1.13-4.69,1.46-6,4.89-5.87,5,.17,11.71,3.26,11.71,3.26a13.71,13.71,0,0,0,1.06,4.59c0,.13.11.28.17.41a13.07,13.07,0,0,0,6.11,6.4l.36.18c.37.18.75.34,1.15.49C184,104.33,169,114.39,169,114.39Z" transform="translate(-6.81 -10.33)"/><path class="cls-9" d="M167.64,93.94A14.48,14.48,0,0,1,149.75,97a9.78,9.78,0,0,0,.06-5.47c-2.72-11.47,16.61-2.61,16.61-2.61A14,14,0,0,0,167.64,93.94Z" transform="translate(-6.81 -10.33)"/><path class="cls-10" d="M171.27,83.75A14.47,14.47,0,0,1,157.66,98.2c-.28,0-.58,0-.88,0a14.49,14.49,0,1,1,14.49-14.49h0Z" transform="translate(-6.81 -10.33)"/><path class="cls-9" d="M169,114.39l-11.5,2.27-.74.15s-9.09-2.42-9.39-2.62-8.56-11.32-8.56-11.32a16.58,16.58,0,0,0,7.45-1.84l.35-.21a13.49,13.49,0,0,0,9.81,4.28,14,14,0,0,0,2.05-.15c1.62-.24,3.25-.4,4.87-.56,3.12-.32,7.89-1.27,10.39-4l.36.18c.37.17.75.34,1.15.49C184,104.33,169,114.39,169,114.39Z" transform="translate(-6.81 -10.33)"/><path class="cls-2" d="M182,143.77c.09,2.21,1.71,27.16,1.71,27.16H133.51l.34-15.7.28-12.57.09-4.12.41-14.29L133.17,123l-7.91-7h0c.06-.19,2.2-6.54,1.91-7.44s3.82-4.53,5.23-4.73a16.45,16.45,0,0,0,2.36-.72c2.37-.84,5.54-2.06,5.89-1.87s5.43-.19,5.63-.21h0a13.45,13.45,0,0,0,10.15,4.68,13.91,13.91,0,0,0,2-.16c1.62-.25,3.25-.41,4.88-.58,3.27-.34,8.36-1.37,10.74-4.45a15.51,15.51,0,0,1,3.37.72,19.67,19.67,0,0,0,4.93.68,24.64,24.64,0,0,1,3.82,1.41,28.86,28.86,0,0,0,3.62,1.41s2.32.6,2.92,6.43,1.22,9.16,1.22,9.16l-12,10.36S181.91,141.55,182,143.77Z" transform="translate(-6.81 -10.33)"/><polygon class="cls-10" points="118.45 150.84 120.21 153.66 126.8 155.98 131.33 147.72 127.16 144.91 120.47 142.29 116.64 144.5 118.45 150.84"/><path class="cls-8" d="M181.5,175.06s9.36-.71,13.18-5,13.48-6.64,13.48-6.64,23.24-2.72,14.08,17.81c0,0-.61,2.31-1.81,3s-4.13,2.52-4.13,2.52l-35.7-3.12Z" transform="translate(-6.81 -10.33)"/><path class="cls-9" d="M199.81,189.49a11,11,0,0,1-1.85,6.15c-6,.53-19.31,1.78-22.09,2.56-3.42,1-10.34-.7-11.1-.89l-.07,0s-1.33-4-2-6.63c-.28-1.18-.43-2.06-.24-2.12.6-.2,6.13-1.71,6-.84s16.61-6.5,16.61-6.5l.51,6.44C187.34,189.59,199.81,186.7,199.81,189.49Z" transform="translate(-6.81 -10.33)"/><path class="cls-8" d="M217,184.11l-.71,2.62a20.48,20.48,0,0,1-5.63,4.42c-3.32,1.72-9.15,4.53-9.15,4.53s-21.43,1.81-25.05,2.82-11.17-.91-11.17-.91-2.82-8.55-2.21-8.75,6.13-1.71,6-.85,16.61-6.49,16.61-6.49Z" transform="translate(-6.81 -10.33)"/><path class="cls-10" d="M157.35,206.67s10.54.73,13,1.69,20.4-.37,20.4-.37,11.57.23,14.88,1.22,2.13-10.13-4-11.38-14.73.59-14.73.59L176.06,197c-1.18-.16-8.94.07-8.94.07Z" transform="translate(-6.81 -10.33)"/><path class="cls-9" d="M116,178.9s13.93,1.26,17.75,3.54Z" transform="translate(-6.81 -10.33)"/><path class="cls-9" d="M202.8,169.77s-10.9,2.65-15.18,6.55Z" transform="translate(-6.81 -10.33)"/><path class="cls-9" d="M116.77,175.74c.23.07,6.41.88,6.26,1.47S116.77,175.74,116.77,175.74Z" transform="translate(-6.81 -10.33)"/><path class="cls-9" d="M107.05,191.26l.81,3a12.68,12.68,0,0,1,2.21,2.11c.4.7,2.72.9,2.72.9a17.59,17.59,0,0,1,3,1.71c.6.6,7.14,2.52,13.28,3.32s17.5,2.32,19.92,3.12a29,29,0,0,0,5.23,1.11s4.52,2.41,6.94,1.81,6.54-11.57,6.54-11.57-15.9-3.72-16.4-4.93-15.8-6.84-15.8-6.84l-9.05.22Z" transform="translate(-6.81 -10.33)"/><path class="cls-8" d="M106.45,191.56l.8,3a12.65,12.65,0,0,1,2.22,2.11c.4.7,2.71.9,2.71.9a16.77,16.77,0,0,1,3,1.72c.6.6,7.14,2.51,13.28,3.31s17.51,2.32,19.92,3.12a29.34,29.34,0,0,0,5.23,1.11s4.53,2.41,7,1.81,6.54-11.57,6.54-11.57-15.9-3.73-16.4-4.93-22.94-10.36-22.94-10.36l-7-1.61Z" transform="translate(-6.81 -10.33)"/><path class="cls-2" d="M127,115l-1.76,1-3.38,23.14s-1.79,1.71-1.23,2.82-.11,3-.11,3-3,1.31-2.36,2.12.37,2.31-.09,3.32-1.22,2.81,0,3.12.21,4.22.21,4.22,4.24-.49,3.94,2c-.13,1,4.8,4.22,4.8,4.22s-5.6-10.16,7-8.75l1.07-5.73s1.08-3.23,0-4.22.25-5.79.25-5.79l.23-20.77Z" transform="translate(-6.81 -10.33)"/><path class="cls-9" d="M124.29,144.88c.22.37,7,1.12,7.44,2.33S124.29,144.88,124.29,144.88Z" transform="translate(-6.81 -10.33)"/><path class="cls-9" d="M122.15,150.62s.92-2.87,3.1-2.36S122.15,150.62,122.15,150.62Z" transform="translate(-6.81 -10.33)"/><path class="cls-9" d="M121,154.82s1.62-3.83,3.83-3.54S121,154.82,121,154.82Z" transform="translate(-6.81 -10.33)"/><path class="cls-10" d="M194.68,154.74,194,159s-7.25,13.28-8.55,13.48-8.45-8.85-8.45-8.85l-1.91-8.86,7.52-1.42,3.34-3.31S194.38,150.81,194.68,154.74Z" transform="translate(-6.81 -10.33)"/><path class="cls-2" d="M191.26,118.42l2.72,1.91v10.16s2.11-.2,1.61.91-1.51,1.7-.61,2.71.71,2.92-.1,3.12-2.21,1-.9,1.51,2.11,1.41,2.11,2a3.61,3.61,0,0,1-.4,2.21c-.51.71-1,2.32-.4,2.92s-.51,3.72-.51,3.72,1.92,4.94.1,6.34c0,0-.8,2.82-.9,3,0,0,1.27-9.79-11.39-5.65,0,0-.24-3.73-.32-5.12s1.09-1.78.44-2.61-2.28-2.72-1.51-3.22.5-1.41.2-2.11-1.37-.71-.4-1.56,1.53-1.66,1-2.06-1.55-1.72-.77-2.32S182,125,182,125,185.23,112.08,191.26,118.42Z" transform="translate(-6.81 -10.33)"/><path class="cls-9" d="M190,135.73s3.87-1,4,0S190,135.73,190,135.73Z" transform="translate(-6.81 -10.33)"/><path class="cls-9" d="M185.64,138.62s5.3-1.33,6-.3S185.64,138.62,185.64,138.62Z" transform="translate(-6.81 -10.33)"/><path class="cls-9" d="M184.46,141.42s7.95-1.11,8.47.51S184.46,141.42,184.46,141.42Z" transform="translate(-6.81 -10.33)"/><path class="cls-9" d="M185.64,144.88c.29.07,7.66.59,7.8,2S185.64,144.88,185.64,144.88Z" transform="translate(-6.81 -10.33)"/><rect class="cls-1" x="119.66" y="139.08" width="63.07" height="35.82" rx="2.95"/><circle class="cls-4" cx="151.2" cy="156.99" r="2.32"/><path class="cls-9" d="M137,127.46s6.05,4.62,10.72,1.1C147.75,128.56,139.85,129.27,137,127.46Z" transform="translate(-6.81 -10.33)"/><path class="cls-9" d="M167.64,128.7s6.05,4.62,10.72,1.1C178.36,129.8,170.46,130.52,167.64,128.7Z" transform="translate(-6.81 -10.33)"/><path class="cls-9" d="M171.27,83.75a14.3,14.3,0,0,1-2.19,7.66A22,22,0,0,0,165.81,80c-2-3.09-8.12-8.49-12.32-7a3,3,0,0,0-1.83,2c-.42,1.58.8,2.25,1.58,3.5a10.72,10.72,0,0,1,1.47,7.23c-.06.34-.13.67-.22,1-.66,2.48-2.17,5.32-.61,7.36,1.09,1.41,3.43,1.91,3.75,3.66a2.07,2.07,0,0,1,0,.5c-.08,1.18-1.09,2.23-1.53,3.39a5.61,5.61,0,0,0,.31,4.11c.7,1.8,1.82,3.61,2.09,5.51a10.74,10.74,0,0,1-1,5.44,24.09,24.09,0,0,0-1.66,5.12c-.49,3.35.74,7.21-1.37,9.85a1.46,1.46,0,0,1-.92.63c-1.35.14-1.12-2.29-2.2-3.1a9.67,9.67,0,0,1-.28,4.19,3.23,3.23,0,0,1-3.24,2.22l-.48-3.16a9.07,9.07,0,0,1-3.35,2.09,24.15,24.15,0,0,1,3.5-9.45c-3.55,1.7-5.61,5.4-7.46,8.87-1.15,2.17-2.34,4.54-1.93,7,.16,1,.58,1.93.68,2.92a2.44,2.44,0,0,1-1.2,2.54,2.15,2.15,0,0,1-2.33-.73l-.1-.12c-.06-.07-.11-.15-.16-.22a3.72,3.72,0,0,1-.27-.48,9.18,9.18,0,0,1-.56-1.85l-.06-.28c-.94-4.11-1.79-8.35-1.1-12.51a23.51,23.51,0,0,0,.66-4.61,8.29,8.29,0,0,0-.53-2.56c-.82-2.3-2.4-4.42-3.3-6.74l0,0c-.47-1.22-.7-2.76.17-3.74a7.45,7.45,0,0,1,1.69-1.13c1.75-1.14,2.53-3.3,2.86-5.37a18.89,18.89,0,0,0,.22-2.81c2.37-.85,5.54-2.07,5.89-1.87s5.43-.2,5.63-.22a7.36,7.36,0,0,0,3.45-4c.06-.16.11-.33.16-.51a14.49,14.49,0,1,1,21.37-12.76Z" transform="translate(-6.81 -10.33)"/><path class="cls-1" d="M154.49,86.08c-.66,2.48-2.17,5.32-.61,7.36,1.09,1.41,3.43,1.91,3.75,3.66.25,1.41-1,2.57-1.49,3.89-1.2,3.16,1.91,6.27,2.39,9.61.51,3.63-2.13,6.94-2.66,10.57-.49,3.34.74,7.21-1.36,9.85a1.46,1.46,0,0,1-.92.62c-1.35.15-1.13-2.28-2.21-3.09a9.39,9.39,0,0,1-.28,4.19,3.23,3.23,0,0,1-3.24,2.22l-.48-3.17a9.1,9.1,0,0,1-3.35,2.1,24.47,24.47,0,0,1,3.5-9.45c-3.55,1.7-5.61,5.39-7.46,8.86-1.15,2.17-2.33,4.55-1.93,7,.16,1,.58,1.93.68,2.92a2.44,2.44,0,0,1-1.2,2.54,2.2,2.2,0,0,1-2.43-.85,6.43,6.43,0,0,1-1-2.55c-1-4.2-1.86-8.54-1.15-12.79a23.28,23.28,0,0,0,.65-4.6c-.12-3.4-2.63-6.2-3.85-9.36-.47-1.23-.7-2.76.17-3.74a7.45,7.45,0,0,1,1.69-1.13c1.75-1.14,2.53-3.3,2.86-5.37a18.74,18.74,0,0,0-.19-6.72c-.71-3.31-2.33-6.54-1.93-9.9s2.66-6,4.18-9a21.31,21.31,0,0,0,2.16-12.43c-.26-2-.72-4.28.62-5.77,1.62-1.78,4.74-1.11,6.59-2.65A12.93,12.93,0,0,0,148,56a7,7,0,0,1,7.52-2.68c1.27.36,2.4,1.08,3.66,1.49a29.68,29.68,0,0,0,5.52.72c1.85.22,3.8.85,4.86,2.37.57.81.82,1.8,1.34,2.64,1.11,1.8,3.23,2.66,4.84,4a9.38,9.38,0,0,1,2.64,10c-1,2.66-3.18,5-3,7.85.08,1.16.57,2.3.41,3.45-.44,3.21-5.09,3.85-6.7,6.66a23,23,0,0,0-3.27-13.21c-2-3.1-8.12-8.5-12.32-7a3,3,0,0,0-1.83,2c-.42,1.58.8,2.25,1.58,3.49A10.66,10.66,0,0,1,154.49,86.08Z" transform="translate(-6.81 -10.33)"/><g class="cls-11"><path d="M134.76,102a18.28,18.28,0,0,0-.4-4.3c-.6-2.82-1.86-5.57-2-8.4-.17,3.15,1.31,6.19,2,9.29A18.57,18.57,0,0,1,134.76,102Z" transform="translate(-6.81 -10.33)"/><path d="M146.75,124.87c.25-.44.5-.89.77-1.32-3.54,1.7-5.6,5.4-7.45,8.87-1.06,2-2.16,4.19-2,6.43a14.65,14.65,0,0,1,2-5.53C141.78,130.11,143.67,126.72,146.75,124.87Z" transform="translate(-6.81 -10.33)"/><path d="M138.8,143.08a2.12,2.12,0,0,1-1.18,1.76,2.19,2.19,0,0,1-2.43-.84,6.56,6.56,0,0,1-1-2.56,45.84,45.84,0,0,1-1.4-9.13,41.41,41.41,0,0,0,1.4,10,6.31,6.31,0,0,0,1,2.55,2.19,2.19,0,0,0,2.43.85,2.44,2.44,0,0,0,1.2-2.54A.3.3,0,0,1,138.8,143.08Z" transform="translate(-6.81 -10.33)"/><path d="M154.82,83.06a9.73,9.73,0,0,1-.33,2.14c-.49,1.83-1.44,3.87-1.27,5.62a31,31,0,0,1,1.27-4.73A9.7,9.7,0,0,0,154.82,83.06Z" transform="translate(-6.81 -10.33)"/><path d="M138.94,69.62a20.32,20.32,0,0,0-.17-3.21c-.11-.78-.24-1.61-.28-2.43a17.06,17.06,0,0,0,.28,3.34A19.61,19.61,0,0,1,138.94,69.62Z" transform="translate(-6.81 -10.33)"/><path d="M157.63,97.13a.08.08,0,0,0,0-.07c-.21,1-1.07,2-1.47,3a4.28,4.28,0,0,0-.25,2,3.9,3.9,0,0,1,.25-1.06C156.64,99.69,157.88,98.52,157.63,97.13Z" transform="translate(-6.81 -10.33)"/><path d="M133.69,124.05c-.12-3.39-2.63-6.19-3.85-9.35a6.41,6.41,0,0,1-.39-1.55,5.19,5.19,0,0,0,.39,2.46c1.21,3.11,3.64,5.86,3.84,9.18C133.69,124.55,133.7,124.3,133.69,124.05Z" transform="translate(-6.81 -10.33)"/><path d="M165.82,78.5c-2-3.1-8.12-8.5-12.32-7a3,3,0,0,0-1.84,2,2.12,2.12,0,0,0,0,1.06.8.8,0,0,1,0-.15,3,3,0,0,1,1.84-2c4.2-1.51,10.31,3.91,12.32,7a22.4,22.4,0,0,1,3.27,11.9A22.78,22.78,0,0,0,165.82,78.5Z" transform="translate(-6.81 -10.33)"/><path d="M175.78,85c-.44,3.2-5.06,3.84-6.69,6.63v.93c1.61-2.82,6.26-3.45,6.71-6.66a3.7,3.7,0,0,0,0-.94S175.79,85,175.78,85Z" transform="translate(-6.81 -10.33)"/><path d="M178.36,73.73c-1,2.67-3.17,5-3,7.86v.12c.21-2.49,2.11-4.65,3-7.07a9,9,0,0,0,.5-3.44A8.72,8.72,0,0,1,178.36,73.73Z" transform="translate(-6.81 -10.33)"/><path d="M154.51,130.14a1.52,1.52,0,0,1-.92.63c-1.35.14-1.13-2.28-2.21-3.1,0,.32.05.65.07,1,1,.87.82,3.17,2.14,3a1.5,1.5,0,0,0,.92-.62c1.2-1.51,1.31-3.41,1.28-5.39A7.09,7.09,0,0,1,154.51,130.14Z" transform="translate(-6.81 -10.33)"/><path d="M151.1,131.87a3.23,3.23,0,0,1-3.24,2.21l-.48-3.16a9.19,9.19,0,0,1-3.18,2c-.07.32-.13.65-.17,1a9,9,0,0,0,3.35-2.1l.48,3.17a3.24,3.24,0,0,0,3.24-2.22,7.3,7.3,0,0,0,.37-2.86A6.24,6.24,0,0,1,151.1,131.87Z" transform="translate(-6.81 -10.33)"/><path d="M155.87,120.29a15.75,15.75,0,0,0-.12,2.57,11.48,11.48,0,0,1,.12-1.66c.5-3.46,2.93-6.63,2.71-10.06C158.38,114.24,156.33,117.14,155.87,120.29Z" transform="translate(-6.81 -10.33)"/></g><path class="cls-2" d="M239.57,168.29s-1.92,8.9,6.59,10l.53-1S240.1,171.06,239.57,168.29Z" transform="translate(-6.81 -10.33)"/><path class="cls-2" d="M249.4,177.2l-2,.42-.2,0S242,173.37,242,163.81a24,24,0,0,0,2.52,4C246.63,170.57,249,174.26,249.4,177.2Z" transform="translate(-6.81 -10.33)"/><path class="cls-2" d="M250.07,178.11a1.21,1.21,0,0,1-1.06.14c-5.07-1.19-3.37-17.73-3.37-17.73.28.13.59,2.25,1.76,4.95C249.45,170.26,251.7,176.92,250.07,178.11Z" transform="translate(-6.81 -10.33)"/><path class="cls-2" d="M261.33,168.29s.33,8.9-8.17,10l-.53-1S260.81,171.06,261.33,168.29Z" transform="translate(-6.81 -10.33)"/><path class="cls-2" d="M258.9,163.81a16.47,16.47,0,0,1-6.8,13.85l-.19,0-2-.42c.39-2.94,2.77-6.63,4.86-9.4A21.23,21.23,0,0,1,258.9,163.81Z" transform="translate(-6.81 -10.33)"/><path class="cls-2" d="M251.87,177.25a3,3,0,0,1-1.12.86h0a1.88,1.88,0,0,1-.42.14c-1.24.28-1.68-.61-1.61-2.14.12-2.72,1.83-7.45,3.38-11a13.64,13.64,0,0,1,3.19-4.61S255.19,173.4,251.87,177.25Z" transform="translate(-6.81 -10.33)"/><path class="cls-2" d="M250.46,154.71s-5.68,20.11-.8,23.15S251.71,156.49,250.46,154.71Z" transform="translate(-6.81 -10.33)"/><path class="cls-9" d="M239.57,168.29s-1.92,8.9,6.59,10l.53-1S240.1,171.06,239.57,168.29Z" transform="translate(-6.81 -10.33)"/><path class="cls-9" d="M249.4,177.2l-2,.42-.2,0S242,173.37,242,163.81a24,24,0,0,0,2.52,4C246.63,170.57,249,174.26,249.4,177.2Z" transform="translate(-6.81 -10.33)"/><path class="cls-9" d="M250.07,178.11a1.21,1.21,0,0,1-1.06.14c-5.07-1.19-3.37-17.73-3.37-17.73.28.13.59,2.25,1.76,4.95C249.45,170.26,251.7,176.92,250.07,178.11Z" transform="translate(-6.81 -10.33)"/><path class="cls-9" d="M261.33,168.29s.33,8.9-8.17,10l-.53-1S260.81,171.06,261.33,168.29Z" transform="translate(-6.81 -10.33)"/><path class="cls-9" d="M258.9,163.81a16.47,16.47,0,0,1-6.8,13.85l-.19,0-2-.42c.39-2.94,2.77-6.63,4.86-9.4A21.23,21.23,0,0,1,258.9,163.81Z" transform="translate(-6.81 -10.33)"/><path class="cls-9" d="M251.87,177.25a3,3,0,0,1-1.12.86h0a1.88,1.88,0,0,1-.42.14c-1.24.28-1.68-.61-1.61-2.14.12-2.72,1.83-7.45,3.38-11a13.64,13.64,0,0,1,3.19-4.61S255.19,173.4,251.87,177.25Z" transform="translate(-6.81 -10.33)"/><path class="cls-9" d="M250.46,154.71s-5.68,20.11-.8,23.15S251.71,156.49,250.46,154.71Z" transform="translate(-6.81 -10.33)"/><path class="cls-2" d="M239.57,168.29s-1.13,8.9,7.38,10l.53-1S240.1,171.06,239.57,168.29Z" transform="translate(-6.81 -10.33)"/><path class="cls-2" d="M250.19,177.2l-2,.42-.2,0s-6.07-4.29-6-13.85c0,0,1.55,1.67,3.31,4C247.42,170.57,249.8,174.26,250.19,177.2Z" transform="translate(-6.81 -10.33)"/><path class="cls-9" d="M250.19,177.2l-2,.42c-1.88-1.65-2.62-6-2.89-9.82C247.42,170.57,249.8,174.26,250.19,177.2Z" transform="translate(-6.81 -10.33)"/><path class="cls-2" d="M250.86,178.11a1.21,1.21,0,0,1-1.06.14c-5.08-1.19-4.16-17.73-4.16-17.73a23.06,23.06,0,0,1,2.54,4.95C250.24,170.26,252.49,176.92,250.86,178.11Z" transform="translate(-6.81 -10.33)"/><path class="cls-2" d="M261.33,168.29s1.13,8.9-7.38,10l-.53-1S260.81,171.06,261.33,168.29Z" transform="translate(-6.81 -10.33)"/><path class="cls-2" d="M258.9,163.81c.06,9.57-6,13.85-6,13.85l-.19,0-2-.42c.39-2.94,2.77-6.63,4.86-9.4C257.34,165.47,258.9,163.81,258.9,163.81Z" transform="translate(-6.81 -10.33)"/><path class="cls-9" d="M255.58,167.8c-.25,3.61-.91,7.6-2.52,9.45a4.17,4.17,0,0,1-.36.37l-2-.42C251.11,174.26,253.49,170.57,255.58,167.8Z" transform="translate(-6.81 -10.33)"/><path class="cls-2" d="M252.67,177.25a3.07,3.07,0,0,1-1.13.86h0a1.88,1.88,0,0,1-.42.14c-1.25.28-1.69-.61-1.61-2.14.12-2.72,1.83-7.45,3.38-11a20.48,20.48,0,0,1,2.39-4.61S256,173.4,252.67,177.25Z" transform="translate(-6.81 -10.33)"/><path class="cls-9" d="M250.86,178.11a1.4,1.4,0,0,1-.8-.25c-2.39-1.49-2.44-7.08-1.87-12.39C250.24,170.26,252.49,176.92,250.86,178.11Z" transform="translate(-6.81 -10.33)"/><path class="cls-9" d="M252.67,177.25c-.29.59-.65.91-1.13.86h0a1.65,1.65,0,0,1-.68-.25,3.66,3.66,0,0,1-1.35-1.75c.12-2.72,1.83-7.45,3.38-11C253.42,170,253.6,175.23,252.67,177.25Z" transform="translate(-6.81 -10.33)"/><path class="cls-2" d="M250.46,154.71s-4.88,20.11,0,23.15S251.71,156.49,250.46,154.71Z" transform="translate(-6.81 -10.33)"/><polygon class="cls-12" points="253.01 166.53 232.7 166.53 232.7 169.9 235.8 169.9 235.88 170.29 237.12 176.82 248.92 176.82 250.17 170.29 250.24 169.9 253.01 169.9 253.01 166.53"/><polygon class="cls-9" points="253 166.53 232.69 166.53 232.69 169.9 235.79 169.9 235.87 170.29 237.11 176.82 248.92 176.82 250.16 170.29 250.23 169.9 253 169.9 253 166.53"/><polygon class="cls-12" points="251.3 168.51 250.96 170.29 249.72 176.82 237.91 176.82 236.67 170.29 236.33 168.51 251.3 168.51"/><polygon class="cls-9" points="251.3 168.51 250.96 170.29 236.67 170.29 236.33 168.51 251.3 168.51"/><rect class="cls-12" x="233.49" y="166.53" width="20.31" height="3.36"/><path class="cls-2" d="M87.21,155.34a5.13,5.13,0,0,0-.68,1.29c0,.12-.09.24-.13.37a.68.68,0,0,0-.24-.08,3.51,3.51,0,0,0-1.07-.1c0-.14,0-.28,0-.44,0-1.59-.15-3.81-1.66-2.87s-.42,2.41.52,3.38l.24.24c-.85.61-1,2-1.16,3.51a8.38,8.38,0,0,1-2.24,4l-.24.25a3,3,0,0,0-2.42-.62l-.11-.41c-.68-2.44-2.08-6.67-3.87-7.6l.23-.3c.76-1,1.62-2.48.35-2.85s-1.38,1.28-1.3,2.53c0,.15,0,.3,0,.44a1.87,1.87,0,0,0-1.32.65c-.06-.08-.13-.15-.2-.23-1-1.22-2.91-3.13-3.47-1.69s1.12,3.09,2.29,4.12l.07.07c-.78,3.17,2.63,5.75,4.47,6.89l.24.14c-2.54,3-4.1,8.59-4.1,8.59l7.11,1.29s4.7-4.06,4.1-7.88h0c4.7-.94,5.77-6,5-8.94l.08,0A5.3,5.3,0,0,0,90,157.44,1.76,1.76,0,0,0,87.21,155.34Z" transform="translate(-6.81 -10.33)"/><path class="cls-9" d="M87.21,155.34a5.13,5.13,0,0,0-.68,1.29c0,.12-.09.24-.13.37a.68.68,0,0,0-.24-.08,3.51,3.51,0,0,0-1.07-.1c0-.14,0-.28,0-.44,0-1.59-.15-3.81-1.66-2.87s-.42,2.41.52,3.38l.24.24c-.85.61-1,2-1.16,3.51a8.38,8.38,0,0,1-2.24,4l-.24.25a3,3,0,0,0-2.42-.62l-.11-.41c-.68-2.44-2.08-6.67-3.87-7.6l.23-.3c.76-1,1.62-2.48.35-2.85s-1.38,1.28-1.3,2.53c0,.15,0,.3,0,.44a1.87,1.87,0,0,0-1.32.65c-.06-.08-.13-.15-.2-.23-1-1.22-2.91-3.13-3.47-1.69s1.12,3.09,2.29,4.12l.07.07c-.78,3.17,2.63,5.75,4.47,6.89l.24.14c-2.54,3-4.1,8.59-4.1,8.59l7.11,1.29s4.7-4.06,4.1-7.88h0c4.7-.94,5.77-6,5-8.94l.08,0A5.3,5.3,0,0,0,90,157.44,1.76,1.76,0,0,0,87.21,155.34Z" transform="translate(-6.81 -10.33)"/><path class="cls-2" d="M73.08,157.39l-.83,2.43a12,12,0,0,1-1-.84c-1.17-1-2.81-2.78-2.29-4.13s2.45.47,3.48,1.69C72.81,157,73.08,157.39,73.08,157.39Z" transform="translate(-6.81 -10.33)"/><path class="cls-2" d="M74.84,156c-.26.33-.53.65-.81,1-.07-.42-.12-.85-.15-1.28-.07-1.24.06-2.9,1.31-2.53S75.6,155,74.84,156Z" transform="translate(-6.81 -10.33)"/><path class="cls-2" d="M85.54,156.39c0,.8-.1,1.44-.1,1.44a11.5,11.5,0,0,1-1-.93c-.94-1-2-2.47-.52-3.37S85.58,154.8,85.54,156.39Z" transform="translate(-6.81 -10.33)"/><path class="cls-2" d="M90.45,157.44a6.07,6.07,0,0,1-2.91,1.91l-1-1.37a10.32,10.32,0,0,1,.4-1.34,5.16,5.16,0,0,1,.69-1.29A1.75,1.75,0,0,1,90.45,157.44Z" transform="translate(-6.81 -10.33)"/><path class="cls-9" d="M72.4,156.54c.41.48.68.84.68.84l-.83,2.43a12,12,0,0,1-1-.84,4.84,4.84,0,0,1,.93-2.14C72.23,156.73,72.31,156.63,72.4,156.54Z" transform="translate(-6.81 -10.33)"/><path class="cls-9" d="M74.84,156c-.26.33-.53.65-.81,1-.07-.42-.12-.85-.15-1.28A1.69,1.69,0,0,1,74.84,156Z" transform="translate(-6.81 -10.33)"/><path class="cls-2" d="M78.92,165.65l-2.07.91c-.37-.19-.74-.4-1.1-.62-2.17-1.34-6.53-4.69-3.61-8.65s5.37,3.14,6.33,6.61C78.76,164.94,78.92,165.65,78.92,165.65Z" transform="translate(-6.81 -10.33)"/><path class="cls-9" d="M84.4,156.9a1.7,1.7,0,0,1,1.14-.51c0,.8-.1,1.44-.1,1.44A11.5,11.5,0,0,1,84.4,156.9Z" transform="translate(-6.81 -10.33)"/><path class="cls-9" d="M88.27,159.08a5.39,5.39,0,0,1-.73.27l-1-1.37a10.32,10.32,0,0,1,.4-1.34A3.54,3.54,0,0,1,88.27,159.08Z" transform="translate(-6.81 -10.33)"/><path class="cls-2" d="M83.14,168.05l-.34.07c-6.93,1-2.29-2.69-2.29-2.69a9.51,9.51,0,0,0,.74-.75,8.08,8.08,0,0,0,2.23-4c.22-2.25.47-4.34,3.12-3.72S89.69,166.74,83.14,168.05Z" transform="translate(-6.81 -10.33)"/><rect class="cls-12" x="62.98" y="174.95" width="13.22" height="3.48"/><rect class="cls-12" x="60.88" y="163.65" width="17.28" height="12.13"/><rect class="cls-9" x="62.98" y="174.95" width="13.22" height="3.48"/><rect class="cls-9" x="60.88" y="163.65" width="17.28" height="12.13"/><rect class="cls-12" x="63.85" y="174.95" width="13.22" height="3.48"/><path class="cls-9" d="M78.47,163.9c.28,1,.45,1.75.45,1.75l-2.07.91c-.37-.19-.74-.4-1.1-.62A5.28,5.28,0,0,1,78.47,163.9Z" transform="translate(-6.81 -10.33)"/><path class="cls-9" d="M83.14,168.05l-.34.07c-6.93,1-2.29-2.69-2.29-2.69a9.51,9.51,0,0,0,.74-.75A4.57,4.57,0,0,1,83.14,168.05Z" transform="translate(-6.81 -10.33)"/><path class="cls-2" d="M71.89,174.67s3.88-13.87,9.31-9.6S79,175.94,79,175.94Z" transform="translate(-6.81 -10.33)"/><circle class="cls-9" cx="67.04" cy="149.13" r="0.43"/><circle class="cls-9" cx="67" cy="151.16" r="0.43"/><circle class="cls-9" cx="79.61" cy="149.53" r="0.43"/><circle class="cls-9" cx="69.46" cy="159.92" r="0.43"/><circle class="cls-9" cx="78.7" cy="152.89" r="0.43"/><circle class="cls-9" cx="74.21" cy="157.39" r="0.43"/><circle class="cls-9" cx="68.52" cy="150" r="0.43"/><circle class="cls-9" cx="78.41" cy="150.83" r="0.43"/><circle class="cls-9" cx="76.93" cy="154.2" r="0.43"/><circle class="cls-9" cx="72.36" cy="159.6" r="0.43"/><circle class="cls-9" cx="71.42" cy="157.46" r="0.43"/><circle class="cls-9" cx="69.17" cy="152.64" r="0.43"/><rect class="cls-9" x="63.85" y="174.95" width="13.22" height="1.27"/><rect class="cls-12" x="61.75" y="163.65" width="17.28" height="12.13"/><circle class="cls-9" cx="72.94" cy="161.55" r="0.43"/><circle class="cls-9" cx="70.33" cy="162.1" r="0.43"/></svg>